<?xml version="1.0" encoding="iso-8859-1"?>
<!-- Generator: Adobe Illustrator 18.0.0, SVG Export Plug-In . SVG Version: 6.00 Build 0)  -->
<!DOCTYPE svg PUBLIC "-//W3C//DTD SVG 1.1//EN" "http://www.w3.org/Graphics/SVG/1.1/DTD/svg11.dtd">
<svg xmlns="http://www.w3.org/2000/svg" xmlns:xlink="http://www.w3.org/1999/xlink" version="1.1" id="Capa_1" x="0px" y="0px" viewBox="0 0 290.362 290.362" style="enable-background:new 0 0 290.362 290.362;" xml:space="preserve" width="512px" height="512px">
<g>
	<path d="M0.025,223.962c0.796-9.728,2.51-19.622,5.094-29.41c1.785-6.76,4.311-13.766,7.507-20.822   c3.492-7.711,6.809-13.754,10.437-19.02c5.463-8.038,11.641-15.459,18.906-22.716c9.655-9.642,21.72-18.22,35.86-25.497   c2.317-1.194,4.704-2.336,7.294-3.493l2.962-1.322V75.698c0-2.15,0-6.151,2.295-9.894c2.803-4.567,7.913-7.404,13.336-7.404   c1.724,0,3.417,0.285,5.034,0.847c3.6,1.251,6.004,3.722,8.328,6.111c0.381,0.39,0.709,0.727,1.041,1.059l60.412,60.411   c4.359,4.359,5.77,11.109,3.51,16.795c-0.811,2.037-2.123,3.923-4.135,5.936l-63.229,63.229c-2.902,2.903-6.943,4.567-11.088,4.567   c-2.589,0-5.148-0.649-7.402-1.878c-4.996-2.726-8.102-8.02-8.102-13.815v-30.12l-6.008,1.237   c-9.271,1.909-17.964,5.209-25.838,9.808c-3.797,2.218-7.601,4.796-11.629,7.884c-5.742,4.401-10.792,9.83-15.395,15.042   c-6.101,6.905-10.991,14.982-14.571,21.247c-0.264,0.461-0.52,0.915-0.771,1.372c-1.298,2.361-3.78,3.829-6.478,3.829   c-0.719,0-1.438-0.106-2.137-0.316C1.943,230.647-0.26,227.415,0.025,223.962z" fill="#D80027"/>
	<path d="M51.963,200.393c2.917-2.236,5.682-4.151,8.398-5.837v50.625h200v-200h-200v56.649   c-10.45,6.374-19.661,13.514-27.478,21.32c-0.856,0.855-1.693,1.714-2.522,2.575V30.181c0-8.284,6.716-15,15-15h230   c8.284,0,15,6.716,15,15v230c0,8.284-6.716,15-15,15h-230c-8.284,0-15-6.716-15-15v-35.675c2.359-3.646,5.024-7.381,7.975-10.721   C42.519,209.048,47.065,204.147,51.963,200.393z" fill="#D80027"/>
</g>
<g>
</g>
<g>
</g>
<g>
</g>
<g>
</g>
<g>
</g>
<g>
</g>
<g>
</g>
<g>
</g>
<g>
</g>
<g>
</g>
<g>
</g>
<g>
</g>
<g>
</g>
<g>
</g>
<g>
</g>
</svg>
